<mxfile host="65bd71144e">
    <diagram id="0uJOHBPf2zR_5XkqILTd" name="第 1 页">
        <mxGraphModel dx="1161" dy="670" grid="1" gridSize="10" guides="1" tooltips="1" connect="1" arrows="1" fold="1" page="1" pageScale="1" pageWidth="827" pageHeight="1169" math="0" shadow="0">
            <root>
                <mxCell id="0"/>
                <mxCell id="1" parent="0"/>
                <mxCell id="5" style="edgeStyle=none;html=1;exitX=1;exitY=0.5;exitDx=0;exitDy=0;entryX=0;entryY=0.5;entryDx=0;entryDy=0;sketch=1;" edge="1" parent="1" source="2" target="4">
                    <mxGeometry relative="1" as="geometry"/>
                </mxCell>
                <mxCell id="6" style="edgeStyle=none;sketch=1;html=1;exitX=1;exitY=0.5;exitDx=0;exitDy=0;entryX=0;entryY=0.5;entryDx=0;entryDy=0;" edge="1" parent="1" source="2" target="3">
                    <mxGeometry relative="1" as="geometry"/>
                </mxCell>
                <mxCell id="35" style="edgeStyle=orthogonalEdgeStyle;curved=1;sketch=1;html=1;exitX=1;exitY=0.5;exitDx=0;exitDy=0;entryX=0;entryY=0.5;entryDx=0;entryDy=0;fontSize=12;" edge="1" parent="1" source="2" target="29">
                    <mxGeometry relative="1" as="geometry"/>
                </mxCell>
                <mxCell id="39" style="edgeStyle=orthogonalEdgeStyle;curved=1;sketch=1;html=1;exitX=1;exitY=0.5;exitDx=0;exitDy=0;entryX=0;entryY=0.5;entryDx=0;entryDy=0;fontSize=12;" edge="1" parent="1" source="2" target="36">
                    <mxGeometry relative="1" as="geometry"/>
                </mxCell>
                <mxCell id="2" value="ZSet 对象" style="rounded=0;whiteSpace=wrap;html=1;fillColor=#ffe6cc;strokeColor=#d79b00;comic=1;" vertex="1" parent="1">
                    <mxGeometry x="40" y="220" width="80" height="40" as="geometry"/>
                </mxCell>
                <mxCell id="8" style="edgeStyle=none;sketch=1;html=1;exitX=1;exitY=0.5;exitDx=0;exitDy=0;entryX=0;entryY=0.5;entryDx=0;entryDy=0;" edge="1" parent="1" source="3" target="7">
                    <mxGeometry relative="1" as="geometry"/>
                </mxCell>
                <mxCell id="3" value="ziplist" style="rounded=0;whiteSpace=wrap;html=1;fillColor=#dae8fc;strokeColor=#6c8ebf;comic=1;" vertex="1" parent="1">
                    <mxGeometry x="160" y="80.69" width="80" height="30" as="geometry"/>
                </mxCell>
                <mxCell id="14" style="edgeStyle=none;sketch=1;html=1;exitX=1;exitY=0.5;exitDx=0;exitDy=0;entryX=0;entryY=0.5;entryDx=0;entryDy=0;fontSize=12;" edge="1" parent="1" source="4" target="13">
                    <mxGeometry relative="1" as="geometry"/>
                </mxCell>
                <mxCell id="4" value="skiplist" style="rounded=0;whiteSpace=wrap;html=1;fillColor=#dae8fc;strokeColor=#6c8ebf;comic=1;" vertex="1" parent="1">
                    <mxGeometry x="160" y="345" width="80" height="30" as="geometry"/>
                </mxCell>
                <mxCell id="10" style="edgeStyle=none;sketch=1;html=1;exitX=1;exitY=0.5;exitDx=0;exitDy=0;fontSize=12;entryX=0;entryY=0.5;entryDx=0;entryDy=0;" edge="1" parent="1" source="7" target="11">
                    <mxGeometry relative="1" as="geometry">
                        <mxPoint x="570" y="120" as="targetPoint"/>
                    </mxGeometry>
                </mxCell>
                <mxCell id="7" value="" style="shape=image;imageAspect=0;aspect=fixed;verticalLabelPosition=bottom;verticalAlign=top;image=https://codereaper-image-bed.oss-cn-shenzhen.aliyuncs.com/img/image-20220912085552257.png;imageBorder=default;sketch=1;" vertex="1" parent="1">
                    <mxGeometry x="280" y="29.54" width="253.85" height="132.3" as="geometry"/>
                </mxCell>
                <mxCell id="11" value="" style="shape=image;imageAspect=0;aspect=fixed;verticalLabelPosition=bottom;verticalAlign=top;sketch=1;fontSize=12;image=https://codereaper-image-bed.oss-cn-shenzhen.aliyuncs.com/img/image-20220912085850474.png;imageBorder=default;" vertex="1" parent="1">
                    <mxGeometry x="570" y="20" width="520" height="75" as="geometry"/>
                </mxCell>
                <mxCell id="12" value="&lt;div style=&quot;color: rgb(56 , 58 , 66) ; background-color: rgb(250 , 250 , 250) ; font-family: &amp;#34;consolas&amp;#34; , &amp;#34;courier new&amp;#34; , monospace ; line-height: 22px&quot;&gt;&lt;div&gt;&lt;span style=&quot;color: #a0a1a7 ; font-style: italic&quot;&gt;/*&amp;nbsp;&lt;/span&gt;&lt;span style=&quot;color: rgb(160 , 161 , 167) ; font-style: italic&quot;&gt;创建一个 ZIPLIST 编码的有序集合&lt;/span&gt;&lt;span style=&quot;color: rgb(160 , 161 , 167) ; font-style: italic&quot;&gt;&amp;nbsp;&lt;/span&gt;&lt;span style=&quot;color: rgb(160 , 161 , 167) ; font-style: italic&quot;&gt;*/&lt;/span&gt;&lt;/div&gt;&lt;div&gt;&lt;span style=&quot;color: #c18401&quot;&gt;robj&lt;/span&gt; &lt;span style=&quot;color: #a626a4&quot;&gt;*&lt;/span&gt;&lt;span style=&quot;color: #4078f2&quot;&gt;createZsetZiplistObject&lt;/span&gt;(&lt;span style=&quot;color: #a626a4&quot;&gt;void&lt;/span&gt;) {&lt;/div&gt;&lt;div&gt;&amp;nbsp; &amp;nbsp; &lt;span style=&quot;color: #a626a4&quot;&gt;unsigned&lt;/span&gt; &lt;span style=&quot;color: #a626a4&quot;&gt;char&lt;/span&gt; &lt;span style=&quot;color: #a626a4&quot;&gt;*&lt;/span&gt;&lt;span style=&quot;color: #e45649&quot;&gt;zl&lt;/span&gt; &lt;span style=&quot;color: #a626a4&quot;&gt;=&lt;/span&gt; &lt;span style=&quot;color: #4078f2&quot;&gt;ziplistNew&lt;/span&gt;();&lt;/div&gt;&lt;div&gt;&amp;nbsp; &amp;nbsp; &lt;span style=&quot;color: #c18401&quot;&gt;robj&lt;/span&gt; &lt;span style=&quot;color: #a626a4&quot;&gt;*&lt;/span&gt;&lt;span style=&quot;color: #e45649&quot;&gt;o&lt;/span&gt; &lt;span style=&quot;color: #a626a4&quot;&gt;=&lt;/span&gt; &lt;span style=&quot;color: #4078f2&quot;&gt;createObject&lt;/span&gt;(&lt;span style=&quot;color: #4078f2&quot;&gt;REDIS_ZSET&lt;/span&gt;,&lt;span style=&quot;color: #e45649&quot;&gt;zl&lt;/span&gt;);&lt;/div&gt;&lt;div&gt;&amp;nbsp; &amp;nbsp; &lt;span style=&quot;color: #e45649&quot;&gt;o&lt;/span&gt;-&amp;gt;&lt;span style=&quot;color: #e45649&quot;&gt;encoding&lt;/span&gt; &lt;span style=&quot;color: #a626a4&quot;&gt;=&lt;/span&gt; &lt;span style=&quot;color: #4078f2&quot;&gt;REDIS_ENCODING_ZIPLIST&lt;/span&gt;;&lt;/div&gt;&lt;div&gt;&amp;nbsp; &amp;nbsp; &lt;span style=&quot;color: #a626a4&quot;&gt;return&lt;/span&gt; &lt;span style=&quot;color: #e45649&quot;&gt;o&lt;/span&gt;;&lt;/div&gt;&lt;div&gt;}&lt;/div&gt;&lt;/div&gt;" style="rounded=0;whiteSpace=wrap;html=1;fillColor=#ffe6cc;strokeColor=#d79b00;comic=1;align=left;" vertex="1" parent="1">
                    <mxGeometry x="570" y="103" width="282" height="157" as="geometry"/>
                </mxCell>
                <mxCell id="16" style="edgeStyle=none;sketch=1;html=1;exitX=0.25;exitY=1;exitDx=0;exitDy=0;entryX=0.5;entryY=0;entryDx=0;entryDy=0;fontSize=12;" edge="1" parent="1" source="13" target="17">
                    <mxGeometry relative="1" as="geometry">
                        <mxPoint x="547.5" y="470" as="targetPoint"/>
                    </mxGeometry>
                </mxCell>
                <mxCell id="13" value="&lt;div style=&quot;color: rgb(56 , 58 , 66) ; background-color: rgb(250 , 250 , 250) ; font-family: &amp;#34;consolas&amp;#34; , &amp;#34;courier new&amp;#34; , monospace ; line-height: 22px&quot;&gt;&lt;div&gt;&lt;span style=&quot;color: #a0a1a7 ; font-style: italic&quot;&gt;/*&amp;nbsp;&lt;/span&gt;&lt;span style=&quot;color: rgb(160 , 161 , 167) ; font-style: italic&quot;&gt;有序集合&lt;/span&gt;&lt;span style=&quot;color: rgb(160 , 161 , 167) ; font-style: italic&quot;&gt;&amp;nbsp;&lt;/span&gt;&lt;span style=&quot;color: rgb(160 , 161 , 167) ; font-style: italic&quot;&gt;*/&lt;/span&gt;&lt;/div&gt;&lt;div&gt;&lt;span style=&quot;color: #a626a4&quot;&gt;typedef&lt;/span&gt; &lt;span style=&quot;color: #a626a4&quot;&gt;struct&lt;/span&gt; &lt;span style=&quot;color: #c18401&quot;&gt;zset&lt;/span&gt; {&lt;/div&gt;&lt;div&gt;&amp;nbsp; &amp;nbsp; &lt;span style=&quot;color: #a0a1a7 ; font-style: italic&quot;&gt;// 字典，键为成员，值为分值&lt;/span&gt;&lt;/div&gt;&lt;div&gt;&amp;nbsp; &amp;nbsp; &lt;span style=&quot;color: #c18401&quot;&gt;dict&lt;/span&gt; &lt;span style=&quot;color: #a626a4&quot;&gt;*&lt;/span&gt;&lt;span style=&quot;color: #e45649&quot;&gt;dict&lt;/span&gt;;&amp;nbsp;&lt;span style=&quot;color: rgb(160 , 161 , 167) ; font-style: italic&quot;&gt;// 用于支持 O(1) 复杂度的按成员取分值操作&amp;nbsp;&lt;/span&gt;&lt;/div&gt;&lt;div&gt;&amp;nbsp; &amp;nbsp;&amp;nbsp;&lt;span style=&quot;color: #a0a1a7 ; font-style: italic&quot;&gt;// 跳跃表，按分值排序成员&lt;/span&gt;&lt;/div&gt;&lt;div&gt;&amp;nbsp; &amp;nbsp; &lt;span style=&quot;color: #c18401&quot;&gt;zskiplist&lt;/span&gt; &lt;span style=&quot;color: #a626a4&quot;&gt;*&lt;/span&gt;&lt;span style=&quot;color: #e45649&quot;&gt;zsl&lt;/span&gt;;&lt;span style=&quot;color: rgb(160 , 161 , 167) ; font-style: italic&quot;&gt;// 用于支持平均复杂度为 O(log N) 的按分值定位成员操作&lt;/span&gt;&lt;span style=&quot;color: rgb(160 , 161 , 167) ; font-style: italic&quot;&gt;以及范围操作&amp;nbsp;&lt;/span&gt;&lt;/div&gt;&lt;div&gt;} &lt;span style=&quot;color: #c18401&quot;&gt;zset&lt;/span&gt;;&lt;/div&gt;&lt;/div&gt;" style="rounded=0;whiteSpace=wrap;html=1;fillColor=#ffe6cc;strokeColor=#d79b00;comic=1;align=left;" vertex="1" parent="1">
                    <mxGeometry x="280" y="280" width="535" height="160" as="geometry"/>
                </mxCell>
                <mxCell id="19" style="edgeStyle=none;sketch=1;html=1;exitX=1;exitY=0.5;exitDx=0;exitDy=0;entryX=0;entryY=0.5;entryDx=0;entryDy=0;fontSize=12;" edge="1" parent="1" source="17" target="18">
                    <mxGeometry relative="1" as="geometry"/>
                </mxCell>
                <mxCell id="21" style="edgeStyle=orthogonalEdgeStyle;sketch=1;html=1;exitX=0.25;exitY=1;exitDx=0;exitDy=0;entryX=0;entryY=0.5;entryDx=0;entryDy=0;fontSize=12;curved=1;" edge="1" parent="1" source="17" target="20">
                    <mxGeometry relative="1" as="geometry">
                        <Array as="points">
                            <mxPoint x="339" y="775"/>
                        </Array>
                    </mxGeometry>
                </mxCell>
                <mxCell id="23" style="edgeStyle=orthogonalEdgeStyle;curved=1;sketch=1;html=1;exitX=0.25;exitY=1;exitDx=0;exitDy=0;entryX=0;entryY=0.5;entryDx=0;entryDy=0;fontSize=12;" edge="1" parent="1" source="17" target="22">
                    <mxGeometry relative="1" as="geometry">
                        <Array as="points">
                            <mxPoint x="339" y="830"/>
                        </Array>
                    </mxGeometry>
                </mxCell>
                <mxCell id="17" value="" style="shape=image;imageAspect=0;aspect=fixed;verticalLabelPosition=bottom;verticalAlign=top;sketch=1;fontSize=12;image=https://codereaper-image-bed.oss-cn-shenzhen.aliyuncs.com/img/image-20220912092647156.png;imageBorder=default;" vertex="1" parent="1">
                    <mxGeometry x="264" y="520" width="300" height="150" as="geometry"/>
                </mxCell>
                <mxCell id="18" value="" style="shape=image;imageAspect=0;aspect=fixed;verticalLabelPosition=bottom;verticalAlign=top;sketch=1;fontSize=12;image=https://codereaper-image-bed.oss-cn-shenzhen.aliyuncs.com/img/image-20220912092600685.png;imageBorder=default;" vertex="1" parent="1">
                    <mxGeometry x="610" y="450" width="520" height="290" as="geometry"/>
                </mxCell>
                <mxCell id="25" style="edgeStyle=orthogonalEdgeStyle;curved=1;sketch=1;html=1;exitX=1;exitY=0.5;exitDx=0;exitDy=0;entryX=0;entryY=0.5;entryDx=0;entryDy=0;fontSize=12;" edge="1" parent="1" source="20" target="24">
                    <mxGeometry relative="1" as="geometry"/>
                </mxCell>
                <mxCell id="20" value="dict" style="rounded=0;whiteSpace=wrap;html=1;fillColor=#d5e8d4;strokeColor=#82b366;comic=1;" vertex="1" parent="1">
                    <mxGeometry x="385.92" y="760" width="58.08" height="30" as="geometry"/>
                </mxCell>
                <mxCell id="27" style="edgeStyle=orthogonalEdgeStyle;curved=1;sketch=1;html=1;exitX=1;exitY=0.5;exitDx=0;exitDy=0;entryX=0;entryY=0.5;entryDx=0;entryDy=0;fontSize=12;" edge="1" parent="1" source="22" target="26">
                    <mxGeometry relative="1" as="geometry"/>
                </mxCell>
                <mxCell id="22" value="zskiplist" style="rounded=0;whiteSpace=wrap;html=1;fillColor=#d5e8d4;strokeColor=#82b366;comic=1;" vertex="1" parent="1">
                    <mxGeometry x="385.92" y="815" width="60" height="30" as="geometry"/>
                </mxCell>
                <mxCell id="24" value="O(1)时间内根据成员查询分值score" style="rounded=0;whiteSpace=wrap;html=1;fillColor=#ffe6cc;strokeColor=#d79b00;comic=1;sketch=1;" vertex="1" parent="1">
                    <mxGeometry x="480" y="760" width="200" height="30" as="geometry"/>
                </mxCell>
                <mxCell id="26" value="&lt;div style=&quot;text-align: left&quot;&gt;&lt;span&gt;① 根据分值定位元素&lt;/span&gt;&lt;/div&gt;&lt;div style=&quot;text-align: left&quot;&gt;&lt;span&gt;② 范围查询 如zrank&lt;/span&gt;&lt;/div&gt;" style="rounded=0;whiteSpace=wrap;html=1;fillColor=#ffe6cc;strokeColor=#d79b00;comic=1;sketch=1;" vertex="1" parent="1">
                    <mxGeometry x="481.92" y="810" width="120" height="40" as="geometry"/>
                </mxCell>
                <mxCell id="28" style="edgeStyle=orthogonalEdgeStyle;curved=1;sketch=1;html=1;exitX=1;exitY=0.5;exitDx=0;exitDy=0;entryX=0;entryY=0.5;entryDx=0;entryDy=0;" edge="1" parent="1" source="29" target="32">
                    <mxGeometry relative="1" as="geometry"/>
                </mxCell>
                <mxCell id="29" value="编码转换" style="rounded=0;whiteSpace=wrap;html=1;fillColor=#b0e3e6;strokeColor=#0e8088;comic=1;" vertex="1" parent="1">
                    <mxGeometry x="170" y="916.25" width="80" height="30" as="geometry"/>
                </mxCell>
                <mxCell id="30" value="true" style="edgeStyle=orthogonalEdgeStyle;sketch=1;html=1;exitX=1;exitY=0.5;exitDx=0;exitDy=0;entryX=0;entryY=0.5;entryDx=0;entryDy=0;rounded=0;" edge="1" parent="1" source="32" target="33">
                    <mxGeometry x="0.3174" relative="1" as="geometry">
                        <Array as="points">
                            <mxPoint x="460" y="931.12"/>
                            <mxPoint x="460" y="894.12"/>
                        </Array>
                        <mxPoint as="offset"/>
                    </mxGeometry>
                </mxCell>
                <mxCell id="31" value="false" style="edgeStyle=orthogonalEdgeStyle;rounded=0;sketch=1;html=1;exitX=1;exitY=0.5;exitDx=0;exitDy=0;entryX=0;entryY=0.5;entryDx=0;entryDy=0;" edge="1" parent="1" source="32" target="34">
                    <mxGeometry x="0.3174" relative="1" as="geometry">
                        <Array as="points">
                            <mxPoint x="460" y="931.12"/>
                            <mxPoint x="460" y="968.12"/>
                        </Array>
                        <mxPoint as="offset"/>
                    </mxGeometry>
                </mxCell>
                <mxCell id="32" value="所有成员长度&amp;lt;64B&lt;br&gt;&amp;amp;&amp;amp; 元素数量&amp;lt;128" style="rhombus;whiteSpace=wrap;html=1;sketch=0;fillColor=#ffe6cc;strokeColor=#d79b00;comic=1;" vertex="1" parent="1">
                    <mxGeometry x="280" y="910" width="150" height="42.5" as="geometry"/>
                </mxCell>
                <mxCell id="33" value="ziplist" style="rounded=0;whiteSpace=wrap;html=1;fillColor=#d5e8d4;strokeColor=#82b366;comic=1;" vertex="1" parent="1">
                    <mxGeometry x="500" y="880" width="80" height="30" as="geometry"/>
                </mxCell>
                <mxCell id="34" value="skiplist" style="rounded=0;whiteSpace=wrap;html=1;fillColor=#d5e8d4;strokeColor=#82b366;comic=1;" vertex="1" parent="1">
                    <mxGeometry x="500" y="952.5" width="80" height="30" as="geometry"/>
                </mxCell>
                <mxCell id="38" style="edgeStyle=orthogonalEdgeStyle;curved=1;sketch=1;html=1;exitX=1;exitY=0.5;exitDx=0;exitDy=0;entryX=0;entryY=0.5;entryDx=0;entryDy=0;fontSize=12;" edge="1" parent="1" source="36" target="37">
                    <mxGeometry relative="1" as="geometry"/>
                </mxCell>
                <mxCell id="36" value="常用命令" style="rounded=0;whiteSpace=wrap;html=1;fillColor=#e1d5e7;strokeColor=#9673a6;comic=1;" vertex="1" parent="1">
                    <mxGeometry x="160" y="1070" width="80" height="30" as="geometry"/>
                </mxCell>
                <mxCell id="37" value="① ZADD 添加元素&lt;br&gt;②&amp;nbsp;ZSCORE 获取元素分数&lt;br&gt;③&amp;nbsp;ZRANGE ZREVRANGE 获得排名在某个范围的元素列表&lt;br&gt;④&amp;nbsp;ZRANGEBYSCORE 获得在某个分数范围的元素列表&lt;br&gt;⑤ ZINCRBY 增加某个元素的分数&lt;br&gt;⑥ ZCARD 获取集合元素数量&lt;br&gt;⑦ ZCOUNT 获取指定分数元素个数&lt;br&gt;⑧ ZREM 删除元素&lt;br&gt;⑨&amp;nbsp;ZREMRANGEBYRANK ZREMRANGEBYSCORE 按照 分数\排名删除元素&lt;br&gt;⑩&amp;nbsp;获取元素排名&lt;br&gt;" style="rounded=0;whiteSpace=wrap;html=1;fillColor=#ffe6cc;strokeColor=#d79b00;comic=1;align=left;sketch=1;" vertex="1" parent="1">
                    <mxGeometry x="280" y="1000" width="340" height="170" as="geometry"/>
                </mxCell>
                <mxCell id="40" value="&lt;div style=&quot;text-align: left&quot;&gt;参考资料：&lt;/div&gt;&lt;div style=&quot;text-align: left&quot;&gt;https://blog.csdn.net/jungeCSND/article/details/125102971&lt;br&gt;&lt;/div&gt;" style="rounded=0;whiteSpace=wrap;html=1;fillColor=#dae8fc;strokeColor=#6c8ebf;comic=1;sketch=1;" vertex="1" parent="1">
                    <mxGeometry x="640" y="1119" width="320" height="50" as="geometry"/>
                </mxCell>
            </root>
        </mxGraphModel>
    </diagram>
</mxfile>